# xmcd CD database file
#
# Track frame offsets:
#	150
#	25812
#	49577
#	74066
#	96340
#	113204
#	130666
#	147390
#	177439
#	197194
#	215094
#	235782
#	256775
#	287850
#	308164
#
# Disc length: 4388 seconds
#
# Revision: 0
# Processed by: cddbd v1.5.1PL2 Copyright (c) Steve Scherf et al.
# Submitted via: CDex 1.51
#
DISCID=e711220f
DTITLE=Saoco - The Best Of Saoco
DYEAR=1993
DGENRE=Salsa
TTITLE0=Paso Fino
TTITLE1=No Me Llores Miseria
TTITLE2=Siempre Sere Guajira
TTITLE3=Lejos Del Batey
TTITLE4=Que Tenga Sabor
TTITLE5=Yo No Como Camaron
TTITLE6=Me Voy Contigo
TTITLE7=Papa Montero
TTITLE8=Fantoma
TTITLE9=Curare
TTITLE10=Todo Se Paga
TTITLE11=La Historia De Antonio
TTITLE12=El Platanero
TTITLE13=Recuerdos
TTITLE14=Sin Ti No Puedo Vivir
EXTD=YEAR: 1993
EXTT0=
EXTT1=
EXTT2=
EXTT3=
EXTT4=
EXTT5=
EXTT6=
EXTT7=
EXTT8=
EXTT9=
EXTT10=
EXTT11=
EXTT12=
EXTT13=
EXTT14=
PLAYORDER=
